<?xml version="1.0" standalone="no"?>
<!DOCTYPE svg PUBLIC "-//W3C//DTD SVG 20010904//EN"
 "http://www.w3.org/TR/2001/REC-SVG-20010904/DTD/svg10.dtd">
<svg version="1.0" xmlns="http://www.w3.org/2000/svg"
 width="1280.000000pt" height="1280.000000pt" viewBox="0 0 1280.000000 1280.000000"
 preserveAspectRatio="xMidYMid meet">
<metadata>
Created by potrace 1.15, written by Peter Selinger 2001-2017
</metadata>
<g transform="translate(0.000000,1280.000000) scale(0.100000,-0.100000)"
fill="#000000" stroke="none">
<path d="M4518 10242 c-10 -20 -43 -66 -73 -102 -53 -61 -206 -283 -322 -467
-29 -46 -57 -83 -62 -83 -10 0 -75 -113 -171 -295 -29 -55 -71 -131 -93 -170
-21 -38 -105 -198 -185 -355 -576 -1124 -768 -1628 -848 -2235 -21 -155 -29
-563 -14 -700 6 -60 15 -148 20 -195 13 -135 73 -368 119 -459 30 -58 30 -59
11 -76 -35 -32 -42 -75 -26 -153 20 -97 77 -206 62 -119 -4 24 -1 21 10 -13
13 -38 14 -58 4 -125 -18 -123 -77 -322 -163 -549 l-34 -89 -61 102 c-88 145
-133 204 -236 307 -140 139 -269 213 -388 222 -88 7 -117 -3 -177 -58 -36 -33
-63 -50 -80 -50 -94 0 -143 -45 -160 -147 -25 -145 -64 -242 -129 -322 -41
-50 -52 -99 -40 -175 14 -93 81 -157 209 -200 83 -28 254 -55 350 -57 129 -2
132 6 -68 -189 -295 -290 -475 -389 -710 -390 -77 0 -83 -5 -58 -44 26 -40 93
-79 163 -96 l66 -16 -49 -25 c-44 -21 -63 -24 -155 -23 -58 0 -138 8 -178 16
-39 9 -72 12 -72 8 0 -12 110 -66 180 -89 188 -62 381 -25 590 111 90 59 312
282 405 408 111 151 111 151 -15 -60 -114 -190 -214 -306 -329 -382 -68 -44
-178 -88 -222 -88 -25 0 -24 -4 12 -56 32 -48 81 -84 112 -84 14 0 17 -5 11
-22 -19 -65 -63 -82 -194 -75 l-105 6 67 -64 c53 -51 79 -68 124 -81 118 -34
229 21 358 180 95 115 166 234 335 559 45 86 84 157 87 157 2 0 -41 -90 -96
-200 -55 -110 -98 -200 -95 -200 3 0 37 63 75 140 45 90 75 138 82 134 7 -4 8
-3 4 4 -4 7 -3 12 2 12 5 0 32 50 61 110 28 61 53 110 56 110 17 0 -507 -1114
-802 -1704 l-144 -289 47 -48 c26 -26 72 -61 103 -78 53 -28 199 -78 205 -70
1 2 38 108 81 234 99 293 219 631 302 855 89 240 284 732 289 728 2 -2 -21
-67 -51 -143 -30 -77 -55 -141 -55 -142 0 -2 6 -2 13 -1 8 2 11 -12 10 -47
l-1 -50 15 35 c8 19 24 59 35 88 11 29 22 52 24 50 2 -2 -17 -58 -42 -124
-127 -332 -323 -880 -445 -1243 -77 -228 -81 -250 -47 -251 3 0 55 145 114
323 166 500 383 1112 391 1104 2 -2 -4 -23 -12 -47 -17 -49 -19 -71 -4 -50 11
15 7 -13 -8 -65 -3 -11 -3 -18 0 -15 3 3 45 114 93 248 48 133 89 241 91 239
2 -2 -6 -39 -16 -83 -59 -238 -26 -430 104 -600 47 -61 155 -165 155 -149 0 3
-20 45 -44 93 -53 105 -91 210 -100 275 -8 53 1 127 14 127 5 0 25 -27 45 -60
44 -72 102 -124 163 -144 72 -25 77 -20 32 31 -95 108 -137 231 -127 372 6 89
37 271 47 271 3 0 18 -77 33 -170 33 -202 65 -318 115 -419 43 -86 139 -195
221 -250 52 -35 161 -95 161 -88 0 1 -34 37 -75 79 -78 80 -127 163 -141 242
l-7 39 29 -22 c52 -38 140 -61 228 -60 45 1 92 4 106 8 23 7 21 9 -25 24 -74
26 -178 91 -239 150 -125 122 -185 264 -242 572 -13 74 -27 142 -31 152 -4 10
26 -11 66 -47 339 -303 478 -392 616 -393 75 0 127 25 184 89 34 39 41 54 41
88 0 87 50 219 123 325 27 40 31 56 28 117 -1 12 -17 45 -36 74 -19 29 -33 55
-30 60 6 10 -19 141 -33 167 -18 32 -90 91 -147 117 -118 56 -298 81 -474 66
-96 -9 -252 -36 -313 -56 -14 -4 -10 10 19 73 85 187 214 368 324 459 40 32
84 71 98 87 16 16 36 27 52 27 38 0 67 28 82 80 12 44 14 45 87 72 118 43 228
103 320 174 47 36 145 110 218 165 298 224 609 571 834 933 157 252 253 450
447 918 312 754 486 1260 611 1778 23 96 73 295 111 441 71 275 75 294 60 285
-5 -3 -14 1 -21 9 -16 19 -309 177 -500 269 -468 225 -1222 527 -1314 526 -6
0 -19 -17 -28 -38z m554 -171 c40 -16 125 -53 188 -81 63 -29 196 -87 296
-130 99 -43 263 -120 365 -170 169 -85 184 -94 182 -117 -1 -14 -5 -28 -8 -31
-8 -8 -508 193 -785 316 -354 157 -370 164 -370 174 0 12 42 68 52 68 4 0 40
-13 80 -29z m178 -204 c201 -90 343 -151 511 -220 l37 -15 -69 -238 c-38 -131
-71 -239 -73 -241 -2 -2 -28 5 -57 16 -30 11 -137 45 -239 75 -102 30 -226 71
-275 90 -50 19 -133 43 -186 55 -79 17 -254 73 -267 85 -10 11 129 277 236
453 l56 91 46 -23 c25 -12 151 -70 280 -128z m-1075 -347 c3 -5 -1 -10 -9 -10
-9 0 -16 5 -16 10 0 6 4 10 9 10 6 0 13 -4 16 -10z m85 -30 c0 -5 -7 -10 -15
-10 -8 0 -15 5 -15 10 0 6 7 10 15 10 8 0 15 -4 15 -10z m250 -50 c0 -5 -7
-10 -15 -10 -8 0 -15 5 -15 10 0 6 7 10 15 10 8 0 15 -4 15 -10z m105 -40 c3
-5 -3 -10 -14 -10 -12 0 -21 5 -21 10 0 6 6 10 14 10 8 0 18 -4 21 -10z m195
-20 c0 -5 -7 -10 -15 -10 -8 0 -15 5 -15 10 0 6 7 10 15 10 8 0 15 -4 15 -10z
m160 -80 c0 -5 -9 -10 -20 -10 -11 0 -20 5 -20 10 0 6 9 10 20 10 11 0 20 -4
20 -10z m305 -60 c3 -5 -1 -10 -10 -10 -9 0 -13 5 -10 10 3 6 8 10 10 10 2 0
7 -4 10 -10z m-88 -6 c-3 -3 -12 -4 -19 -1 -8 3 -5 6 6 6 11 1 17 -2 13 -5z
m193 -34 c0 -5 -7 -10 -15 -10 -8 0 -15 5 -15 10 0 6 7 10 15 10 8 0 15 -4 15
-10z m168 -78 c2 -7 -3 -12 -12 -12 -9 0 -16 7 -16 16 0 17 22 14 28 -4z m327
-142 c3 -5 1 -10 -4 -10 -6 0 -11 5 -11 10 0 6 2 10 4 10 3 0 8 -4 11 -10z
m90 0 c3 -5 1 -10 -4 -10 -6 0 -11 5 -11 10 0 6 2 10 4 10 3 0 8 -4 11 -10z
m-2489 -4261 c19 -22 19 -22 -3 -10 -24 12 -39 31 -25 31 5 0 17 -10 28 -21z
m-1035 -1302 c-10 -9 -11 -8 -5 6 3 10 9 15 12 12 3 -3 0 -11 -7 -18z m-20
-40 c-10 -9 -11 -8 -5 6 3 10 9 15 12 12 3 -3 0 -11 -7 -18z m180 -224 c-12
-20 -14 -14 -5 12 4 9 9 14 11 11 3 -2 0 -13 -6 -23z m-20 -50 c-12 -20 -14
-14 -5 12 4 9 9 14 11 11 3 -2 0 -13 -6 -23z m-41 -400 c-11 -17 -11 -17 -6 0
3 10 6 24 7 30 0 9 2 9 5 0 3 -7 0 -20 -6 -30z"/>
<path d="M8125 10246 c-201 -60 -807 -312 -1175 -488 -198 -95 -493 -253 -510
-273 -7 -8 -16 -12 -21 -9 -15 9 -11 -10 60 -285 38 -146 88 -345 111 -441
125 -518 299 -1024 611 -1778 194 -468 290 -666 447 -918 225 -362 536 -709
834 -933 73 -55 171 -129 218 -165 92 -71 202 -131 320 -174 73 -27 75 -28 87
-72 15 -52 44 -80 82 -80 16 0 36 -11 52 -27 14 -16 58 -55 98 -87 78 -64 169
-178 242 -303 50 -84 161 -313 153 -313 -3 0 -49 11 -102 24 -155 39 -253 49
-412 43 -214 -7 -338 -46 -431 -136 -50 -49 -67 -91 -74 -181 -2 -33 -12 -60
-34 -90 -17 -24 -32 -51 -33 -62 -7 -73 -4 -84 40 -151 60 -93 92 -176 107
-274 13 -88 31 -119 95 -165 102 -74 225 -54 403 66 73 49 149 112 358 296 35
30 60 47 57 38 -4 -9 -23 -95 -42 -190 -39 -190 -63 -274 -106 -358 -79 -156
-218 -279 -375 -330 -38 -13 -39 -14 -15 -21 14 -4 62 -7 108 -8 89 -1 173 21
226 60 l29 22 -7 -29 c-21 -85 -30 -107 -66 -161 -21 -33 -64 -83 -95 -112
-30 -29 -55 -54 -55 -57 0 -9 107 50 166 91 96 69 168 154 218 258 54 115 71
175 111 407 l31 185 17 -75 c63 -278 35 -442 -100 -590 -39 -44 -32 -49 38
-25 64 23 106 60 156 137 24 37 48 66 52 63 17 -10 20 -82 5 -151 -16 -81 -58
-189 -104 -269 -43 -76 -37 -84 23 -29 113 106 181 212 214 337 21 79 20 236
-1 337 -9 41 -46 163 -83 270 -80 234 -96 287 -85 275 14 -15 172 -418 247
-625 69 -195 90 -245 80 -200 -3 14 -8 36 -11 49 -6 19 -4 22 6 16 10 -6 12
-4 6 11 -21 51 -56 158 -52 161 8 8 251 -676 420 -1184 59 -178 111 -323 114
-323 34 1 30 23 -47 251 -129 384 -325 930 -460 1283 -34 88 -60 161 -58 163
2 2 21 -41 43 -96 34 -89 39 -97 49 -77 7 11 17 20 23 18 7 -1 12 -1 12 1 0 1
-25 65 -55 142 -30 76 -53 141 -51 143 5 4 200 -488 289 -728 83 -224 203
-562 302 -855 43 -126 80 -232 81 -234 6 -8 152 42 205 70 31 17 77 52 103 78
l47 48 -144 290 c-224 446 -481 986 -684 1433 -41 91 -79 173 -84 183 -6 9 -7
17 -4 17 11 0 195 -382 189 -392 -4 -6 -3 -8 4 -5 6 4 31 -33 62 -90 29 -54
77 -136 108 -183 30 -47 55 -90 55 -97 0 -7 4 -10 8 -8 4 3 24 -17 44 -44 48
-66 127 -137 190 -169 68 -35 152 -37 215 -4 40 21 140 108 140 122 0 3 -50 3
-110 2 l-110 -4 -35 35 c-37 37 -46 67 -20 67 30 0 76 31 105 72 17 22 30 46
30 52 0 6 -26 17 -57 25 -57 13 -140 51 -198 90 -94 64 -218 217 -330 406 -85
144 -84 147 2 30 130 -175 282 -326 423 -422 224 -152 456 -173 680 -61 98 49
88 59 -34 34 -119 -25 -220 -21 -286 10 l-55 27 65 16 c36 9 74 22 86 28 25
15 94 89 94 103 0 6 -32 10 -74 10 -164 0 -324 61 -491 187 -49 37 -161 138
-248 225 l-157 156 87 6 c294 22 429 57 516 134 53 48 77 102 77 175 0 64 -7
82 -55 142 -55 68 -95 168 -116 294 -20 113 -48 144 -144 158 -33 4 -56 15
-83 41 -64 60 -91 72 -160 72 -119 0 -256 -68 -391 -196 -98 -92 -159 -168
-244 -302 l-64 -101 -51 132 c-91 237 -144 413 -162 542 -10 67 -9 87 4 125
11 34 14 37 10 12 -15 -86 42 23 62 120 16 78 9 121 -26 153 -19 17 -19 18 11
76 46 91 106 324 119 459 5 47 14 135 20 195 15 137 7 545 -14 700 -68 515
-219 957 -583 1706 -131 269 -388 774 -450 884 -22 39 -64 115 -93 170 -96
182 -161 295 -171 295 -5 0 -33 37 -62 83 -116 184 -269 406 -322 467 -30 36
-63 82 -73 102 -9 21 -24 38 -32 37 -8 0 -64 -15 -125 -33z m-287 -176 c36
-49 77 -24 -348 -212 -277 -123 -777 -324 -785 -316 -3 3 -7 17 -8 31 -2 23
13 32 182 117 102 50 266 127 365 170 100 43 228 99 286 125 136 62 262 114
276 115 5 0 20 -13 32 -30z m190 -310 c77 -139 146 -279 140 -285 -13 -13
-187 -69 -267 -86 -53 -12 -136 -36 -186 -55 -49 -19 -173 -60 -275 -90 -102
-30 -209 -64 -239 -75 -29 -11 -55 -18 -57 -16 -9 9 -141 478 -135 481 3 2 69
29 146 61 144 60 615 269 682 304 l38 19 39 -62 c21 -33 73 -122 114 -196z
m622 -240 c0 -5 -7 -10 -16 -10 -8 0 -12 5 -9 10 3 6 10 10 16 10 5 0 9 -4 9
-10z m-80 -30 c0 -5 -7 -10 -15 -10 -8 0 -15 5 -15 10 0 6 7 10 15 10 8 0 15
-4 15 -10z m-250 -50 c0 -5 -7 -10 -15 -10 -8 0 -15 5 -15 10 0 6 7 10 15 10
8 0 15 -4 15 -10z m-100 -40 c0 -5 -9 -10 -21 -10 -11 0 -17 5 -14 10 3 6 13
10 21 10 8 0 14 -4 14 -10z m-200 -20 c0 -5 -7 -10 -15 -10 -8 0 -15 5 -15 10
0 6 7 10 15 10 8 0 15 -4 15 -10z m-150 -80 c0 -5 -9 -10 -20 -10 -11 0 -20 5
-20 10 0 6 9 10 20 10 11 0 20 -4 20 -10z m-325 -60 c3 -5 -1 -10 -10 -10 -9
0 -13 5 -10 10 3 6 8 10 10 10 2 0 7 -4 10 -10z m92 -6 c-3 -3 -12 -4 -19 -1
-8 3 -5 6 6 6 11 1 17 -2 13 -5z m-187 -34 c0 -5 -7 -10 -15 -10 -8 0 -15 5
-15 10 0 6 7 10 15 10 8 0 15 -4 15 -10z m-170 -75 c0 -8 -7 -15 -15 -15 -16
0 -20 12 -8 23 11 12 23 8 23 -8z m-430 -145 c0 -5 -5 -10 -11 -10 -5 0 -7 5
-4 10 3 6 8 10 11 10 2 0 4 -4 4 -10z m90 0 c0 -5 -5 -10 -11 -10 -5 0 -7 5
-4 10 3 6 8 10 11 10 2 0 4 -4 4 -10z m2415 -4250 c-3 -5 -16 -15 -28 -21 -22
-12 -22 -12 -3 10 19 21 43 30 31 11z m855 -1585 c0 -5 -5 -3 -10 5 -5 8 -10
20 -10 25 0 6 5 3 10 -5 5 -8 10 -19 10 -25z m20 -50 c0 -5 -5 -3 -10 5 -5 8
-10 20 -10 25 0 6 5 3 10 -5 5 -8 10 -19 10 -25z m-20 -130 c0 -5 -5 -3 -10 5
-5 8 -10 20 -10 25 0 6 5 3 10 -5 5 -8 10 -19 10 -25z"/>
<path d="M2892 4660 c0 -14 2 -19 5 -12 2 6 2 18 0 25 -3 6 -5 1 -5 -13z"/>
<path d="M9902 4660 c0 -14 2 -19 5 -12 2 6 2 18 0 25 -3 6 -5 1 -5 -13z"/>
<path d="M2882 4580 c0 -14 2 -19 5 -12 2 6 2 18 0 25 -3 6 -5 1 -5 -13z"/>
<path d="M9912 4580 c0 -14 2 -19 5 -12 2 6 2 18 0 25 -3 6 -5 1 -5 -13z"/>
<path d="M2871 4534 c0 -11 3 -14 6 -6 3 7 2 16 -1 19 -3 4 -6 -2 -5 -13z"/>
<path d="M9921 4534 c0 -11 3 -14 6 -6 3 7 2 16 -1 19 -3 4 -6 -2 -5 -13z"/>
<path d="M2850 4453 c-7 -32 -34 -122 -61 -199 -50 -145 -56 -170 -39 -159 5
3 6 13 3 22 -5 12 -3 14 7 8 10 -6 12 -4 7 8 -3 10 -2 17 3 17 5 0 6 7 3 17
-5 11 -3 14 6 8 10 -6 11 -2 6 15 -5 15 -4 20 4 16 7 -5 9 -1 5 8 -4 9 -1 16
6 16 7 0 10 7 6 16 -4 9 -2 13 5 8 8 -4 9 1 4 15 -3 11 -2 21 3 21 6 0 8 10 5
23 -4 18 -3 19 6 7 9 -12 10 -9 5 14 -5 19 -3 27 4 22 6 -4 8 2 5 16 -4 19 -3
20 7 8 9 -12 10 -11 5 7 -3 11 -1 42 6 67 6 26 9 49 7 51 -3 3 -11 -21 -18
-52z"/>
<path d="M9937 4475 c4 -22 7 -55 7 -73 0 -22 2 -29 9 -20 6 9 7 6 4 -10 -3
-14 -1 -20 5 -16 7 5 9 -3 4 -22 -5 -23 -4 -26 5 -14 9 12 10 11 6 -7 -3 -13
-1 -23 5 -23 5 0 6 -10 3 -21 -5 -14 -4 -19 4 -15 7 5 9 1 5 -8 -4 -9 -1 -16
6 -16 7 0 10 -7 6 -16 -4 -9 -2 -13 5 -8 8 4 9 -1 4 -16 -5 -17 -4 -21 6 -15
9 6 11 3 6 -8 -3 -10 -2 -17 3 -17 5 0 6 -7 3 -17 -5 -12 -3 -14 7 -8 10 6 12
4 7 -8 -3 -10 -2 -17 4 -17 6 0 7 -4 4 -10 -3 -5 -2 -17 3 -26 6 -11 12 -13
16 -6 3 6 -7 44 -22 84 -32 80 -82 231 -106 318 -11 36 -13 41 -9 15z"/>
<path d="M2165 2879 c-4 -6 -5 -12 -2 -15 2 -3 7 2 10 11 7 17 1 20 -8 4z"/>
<path d="M2491 2483 c-1 -6 -4 -20 -7 -30 -5 -17 -5 -17 6 0 6 10 9 23 6 30
-3 9 -5 9 -5 0z"/>
<path d="M10301 2480 c0 -8 4 -22 9 -30 12 -18 12 -2 0 25 -6 13 -9 15 -9 5z"/>
<path d="M1447 1456 l-39 -33 64 -58 c38 -34 49 -48 28 -35 -19 13 -49 36 -65
51 l-31 29 -37 -25 c-20 -14 -37 -28 -37 -31 0 -3 24 -30 53 -61 94 -100 198
-158 329 -183 43 -8 56 -15 51 -25 -9 -25 46 -103 102 -146 95 -72 190 -83
170 -19 -5 16 -9 19 -15 10 -9 -15 -55 -8 -106 16 -44 21 -88 77 -81 104 4 14
-2 22 -22 29 -63 23 7 8 133 -29 149 -44 202 -50 192 -24 -3 9 -6 28 -6 44 l0
28 -122 4 c-133 5 -175 16 -261 68 -94 56 -105 72 -27 35 90 -42 208 -72 310
-79 41 -3 63 -2 48 2 -24 6 -25 9 -13 25 13 18 13 18 18 0 3 -10 5 0 6 23 l1
41 -72 -1 c-93 0 -181 23 -286 76 -90 44 -168 108 -202 163 -12 19 -27 35 -33
35 -7 -1 -29 -16 -50 -34z"/>
<path d="M11270 1455 c-34 -55 -112 -119 -202 -163 -105 -53 -193 -76 -285
-76 l-73 1 1 -41 c1 -23 3 -33 6 -23 5 18 5 18 18 0 12 -16 11 -19 -13 -25
-15 -4 7 -5 48 -2 102 7 220 37 310 79 78 37 67 21 -27 -35 -86 -52 -128 -63
-260 -68 l-123 -4 0 -28 c0 -16 -3 -35 -6 -44 -10 -26 43 -20 192 24 126 37
196 52 133 29 -20 -7 -26 -15 -22 -29 7 -27 -37 -83 -81 -104 -51 -24 -97 -31
-106 -16 -6 9 -10 6 -15 -10 -20 -64 75 -53 170 19 56 43 111 121 102 146 -5
10 8 17 51 25 131 25 235 83 330 183 28 31 52 58 52 61 0 3 -17 17 -37 31
l-37 25 -31 -29 c-16 -15 -46 -38 -65 -51 -21 -13 -10 1 28 35 l64 58 -39 33
c-21 18 -43 33 -50 34 -6 0 -21 -16 -33 -35z"/>
<path d="M120 1424 c-88 -14 -120 -39 -120 -95 0 -65 113 -195 257 -299 253
-180 908 -529 1236 -659 294 -116 812 -281 1056 -337 133 -30 308 -41 379 -24
58 14 102 55 102 96 0 31 -44 95 -101 149 -36 35 -39 36 -22 10 12 -16 30 -39
42 -49 33 -30 62 -82 55 -99 -24 -63 -263 -44 -589 47 -879 246 -2131 857
-2337 1140 -57 79 -32 106 100 106 53 0 72 3 62 10 -15 9 -70 11 -120 4z"/>
<path d="M12560 1421 c-11 -8 6 -11 62 -11 132 0 157 -27 100 -106 -206 -283
-1458 -894 -2337 -1140 -326 -91 -565 -110 -589 -47 -7 17 22 69 55 99 12 10
30 33 42 49 17 26 14 25 -22 -10 -57 -54 -101 -118 -101 -149 0 -41 44 -82
102 -96 71 -17 246 -6 379 24 244 56 762 221 1056 337 328 130 983 479 1236
659 144 104 257 234 257 299 0 36 -22 70 -52 80 -45 16 -171 24 -188 12z"/>
<path d="M734 1235 c-15 -23 -15 -27 1 -51 39 -59 214 -112 365 -109 47 0 77
-1 68 -3 -10 -2 -18 -12 -18 -23 0 -10 -6 -19 -12 -20 -34 -1 46 -22 117 -30
186 -21 517 -163 649 -279 66 -58 105 -80 138 -79 13 0 18 3 12 5 -6 3 8 24
32 47 24 23 44 47 44 52 0 6 -13 19 -30 28 -19 11 -27 23 -23 33 4 12 8 12 22
2 12 -9 11 -7 -2 9 -12 13 -45 28 -90 38 -103 25 -129 37 -207 99 -94 73 -166
106 -274 123 -124 20 -146 27 -237 85 -66 42 -84 50 -110 44 -46 -9 -96 -43
-110 -75 -10 -22 -17 -27 -37 -23 -19 4 -23 2 -17 -9 15 -23 -53 30 -80 64
l-26 32 15 -32 c9 -17 20 -35 26 -38 18 -11 11 -26 -7 -16 -10 6 -47 24 -83
40 -85 41 -126 76 -110 96 7 8 10 15 6 15 -3 0 -13 -11 -22 -25z"/>
<path d="M12050 1245 c16 -20 -25 -55 -110 -96 -36 -16 -73 -34 -82 -40 -19
-10 -26 5 -8 16 6 3 17 21 26 38 l15 32 -26 -32 c-27 -34 -95 -87 -80 -64 6
11 2 13 -17 9 -20 -4 -27 1 -37 23 -14 32 -64 66 -110 75 -26 6 -44 -2 -110
-44 -91 -58 -113 -65 -237 -85 -108 -17 -180 -50 -274 -123 -78 -62 -104 -74
-207 -99 -45 -10 -78 -25 -90 -38 -13 -16 -14 -18 -2 -9 14 10 18 10 22 -2 4
-10 -4 -22 -23 -33 -17 -9 -30 -22 -30 -28 0 -5 20 -29 44 -52 24 -23 38 -44
32 -47 -6 -2 -1 -5 12 -5 33 -1 72 21 138 79 132 116 463 258 649 279 71 8
151 29 118 30 -7 1 -13 10 -13 20 0 11 -8 21 -17 23 -10 2 20 3 67 3 151 -3
326 50 365 109 16 24 16 28 1 51 -9 14 -19 25 -22 25 -4 0 -1 -7 6 -15z"/>
<path d="M430 1197 c0 -8 145 -104 285 -189 580 -351 1121 -577 1756 -733 142
-35 185 -42 163 -27 -6 4 -15 23 -19 42 -3 19 -25 63 -48 97 -38 58 -42 60
-52 40 -34 -70 -138 -61 -440 34 -296 94 -557 201 -847 345 -322 160 -519 288
-534 350 -5 21 -12 24 -58 26 -28 1 -76 0 -108 -1 -31 -2 -65 2 -77 8 -12 7
-21 10 -21 8z"/>
<path d="M12347 1189 c-10 -6 -44 -10 -75 -8 -31 1 -80 2 -108 1 -46 -2 -53
-5 -58 -26 -15 -62 -212 -190 -534 -350 -290 -144 -551 -251 -847 -345 -302
-95 -406 -104 -440 -34 -10 20 -14 18 -52 -40 -23 -34 -45 -78 -48 -97 -4 -19
-13 -38 -19 -42 -58 -38 400 83 714 189 325 110 621 242 955 426 232 128 569
341 533 337 -2 0 -11 -5 -21 -11z"/>
<path d="M1495 752 c15 -15 125 -62 125 -53 0 4 -26 18 -57 32 -78 33 -80 33
-68 21z"/>
<path d="M11238 732 c-32 -15 -58 -30 -58 -34 0 -8 110 38 125 53 15 15 -6 9
-67 -19z"/>
</g>
</svg>
