<?xml version="1.0" standalone="no"?>
<!DOCTYPE svg PUBLIC "-//W3C//DTD SVG 20010904//EN"
 "http://www.w3.org/TR/2001/REC-SVG-20010904/DTD/svg10.dtd">
<svg version="1.0" xmlns="http://www.w3.org/2000/svg"
 width="1280.000000pt" height="944.000000pt" viewBox="0 0 1280.000000 944.000000"
 preserveAspectRatio="xMidYMid meet">
<metadata>
Created by potrace 1.15, written by Peter Selinger 2001-2017
</metadata>
<g transform="translate(0.000000,944.000000) scale(0.100000,-0.100000)"
fill="#000000" stroke="none">
<path d="M7260 9434 c-183 -24 -318 -63 -480 -140 -404 -193 -732 -504 -970
-918 -140 -243 -269 -603 -312 -865 -6 -42 -13 -78 -14 -80 -2 -2 -49 19 -106
47 -127 63 -248 105 -381 134 -88 19 -132 22 -322 22 -265 0 -412 -23 -686
-110 -245 -77 -590 -355 -761 -614 -144 -216 -245 -463 -316 -770 -76 -329
-117 -587 -127 -815 -3 -71 -8 -153 -11 -181 l-5 -52 -82 18 c-45 10 -167 44
-270 74 -412 122 -497 140 -776 157 -610 38 -1000 -68 -1277 -345 -59 -60
-120 -132 -148 -178 -83 -135 -156 -340 -193 -548 -21 -121 -24 -455 -5 -585
73 -484 266 -921 578 -1308 351 -436 761 -738 1369 -1007 142 -63 811 -331
1165 -467 849 -325 1588 -654 1905 -847 l90 -55 25 32 c54 70 87 94 170 127
47 18 88 36 92 39 4 3 14 62 23 131 105 814 363 1728 584 2067 l40 62 -17 38
c-14 32 -17 69 -16 228 1 255 35 493 164 1149 33 170 59 314 57 320 -20 60
-662 -1746 -936 -2634 -136 -441 -261 -915 -261 -988 0 -12 -5 -22 -11 -22 -7
0 -77 30 -158 66 -194 88 -494 208 -1016 404 -463 175 -602 229 -820 320 -77
32 -205 84 -285 115 -373 146 -744 353 -1050 588 -137 105 -445 414 -540 542
-259 348 -425 741 -506 1200 -26 146 -26 487 0 605 59 269 183 462 377 590
283 184 861 85 1339 -229 50 -32 131 -102 198 -168 l114 -114 96 78 c53 43
178 158 278 256 l181 177 6 158 c11 261 54 486 144 746 136 393 335 721 597
981 343 342 694 456 1039 339 127 -43 288 -145 378 -241 36 -37 37 -41 48
-153 45 -456 169 -850 499 -1585 389 -869 479 -1128 573 -1650 32 -176 29
-403 -10 -756 -16 -151 -31 -298 -33 -326 l-3 -53 232 -149 231 -149 101 84
c294 242 677 495 1150 759 286 159 615 328 1406 721 847 421 1046 530 1355
743 558 385 1016 836 1335 1316 266 402 419 779 486 1200 20 125 18 457 -5
590 -111 666 -549 1208 -1297 1604 -187 99 -385 141 -671 142 -230 1 -396 -22
-618 -86 -275 -79 -563 -221 -813 -400 l-96 -68 49 -54 c27 -29 66 -84 87
-122 l38 -69 80 50 c440 273 816 397 1200 398 226 0 415 -41 601 -129 445
-212 736 -633 835 -1208 26 -151 31 -456 10 -613 -106 -796 -574 -1517 -1338
-2061 -162 -116 -536 -365 -728 -486 -450 -283 -726 -442 -1469 -842 -308
-166 -632 -343 -720 -393 -352 -200 -721 -434 -996 -631 l-135 -97 -8 42 c-5
24 -6 237 -3 473 8 610 -8 833 -84 1122 -70 267 -170 503 -408 960 -250 479
-332 659 -416 918 -73 227 -161 635 -136 635 4 0 35 -20 67 -44 74 -56 214
-201 509 -526 430 -474 531 -550 450 -338 -39 101 -91 211 -194 403 -229 431
-432 718 -689 974 l-135 133 12 67 c95 546 330 1030 664 1365 213 213 440 339
729 403 128 28 465 25 607 -5 515 -111 991 -426 1267 -840 115 -171 182 -344
199 -514 l7 -66 141 107 c77 59 163 120 189 136 58 33 58 33 -3 188 -252 645
-1020 1201 -1840 1333 -94 15 -392 26 -460 18z"/>
</g>
</svg>
