<?xml version="1.0" standalone="no"?>
<!DOCTYPE svg PUBLIC "-//W3C//DTD SVG 20010904//EN"
 "http://www.w3.org/TR/2001/REC-SVG-20010904/DTD/svg10.dtd">
<svg version="1.0" xmlns="http://www.w3.org/2000/svg"
 width="1280.000000pt" height="1280.000000pt" viewBox="0 0 1280.000000 1280.000000"
 preserveAspectRatio="xMidYMid meet">
<metadata>
Created by potrace 1.15, written by Peter Selinger 2001-2017
</metadata>
<g transform="translate(0.000000,1280.000000) scale(0.100000,-0.100000)"
fill="#000000" stroke="none">
<path d="M6305 9471 c-60 -11 -98 -35 -145 -91 -50 -59 -69 -107 -70 -171 0
-56 15 -103 46 -146 31 -41 30 -46 -7 -77 -21 -18 -42 -26 -68 -26 -40 0 -56
10 -158 93 -32 26 -87 62 -123 80 -61 30 -72 32 -170 32 -77 0 -117 -5 -152
-18 -124 -48 -184 -216 -114 -319 41 -61 79 -78 173 -78 l84 0 76 50 c88 58
121 63 153 23 28 -36 21 -78 -20 -115 -32 -30 -59 -35 -92 -17 -33 18 -105 12
-154 -12 -49 -23 -97 -85 -109 -139 -16 -74 52 -180 128 -201 70 -19 149 -8
192 27 74 58 66 56 124 28 56 -28 105 -88 99 -121 -2 -13 -35 -29 -123 -59
-302 -103 -470 -220 -637 -442 -75 -99 -107 -122 -171 -122 -18 0 -38 5 -44
11 -8 8 -28 9 -58 5 -40 -6 -57 -18 -119 -77 -47 -44 -82 -69 -96 -69 -16 0
-55 31 -119 93 -192 186 -392 248 -755 234 -188 -8 -292 -25 -598 -101 -380
-94 -548 -116 -728 -96 -106 11 -150 28 -150 56 0 8 12 36 27 61 49 84 31 173
-42 207 -144 69 -347 -98 -304 -251 9 -32 28 -60 72 -103 43 -42 58 -63 53
-75 -7 -20 -21 -19 -161 20 -88 24 -119 27 -255 29 -85 0 -177 -1 -205 -4 -77
-8 -72 15 23 113 90 93 115 134 116 194 2 80 -69 117 -140 74 -41 -25 -71 -88
-85 -181 -16 -110 -84 -222 -124 -206 -21 8 -85 144 -92 194 -4 30 2 52 26 99
47 94 95 266 81 292 -22 42 -87 65 -180 65 -73 0 -95 -4 -159 -32 -41 -17 -76
-30 -79 -28 -2 2 5 21 16 43 34 66 36 97 9 128 -18 22 -34 29 -75 33 -83 8
-116 -24 -142 -138 -16 -67 -34 -96 -71 -116 -39 -20 -61 -18 -129 11 -33 14
-78 25 -100 25 -35 0 -43 -5 -61 -32 -30 -49 -22 -122 21 -190 52 -82 90 -159
90 -183 0 -12 -9 -34 -20 -48 l-21 -26 -52 20 c-44 17 -58 19 -89 10 -53 -16
-98 -72 -98 -122 0 -78 29 -106 129 -128 59 -13 65 -21 52 -67 -15 -53 -13
-137 4 -208 23 -96 -3 -126 -100 -113 -53 8 -75 -9 -75 -57 0 -19 -14 -53 -35
-86 -42 -65 -46 -111 -13 -134 12 -9 30 -16 38 -16 9 0 25 -6 35 -14 17 -12
18 -17 6 -57 -17 -57 -86 -154 -182 -254 -139 -146 -143 -187 -28 -296 65 -62
67 -67 49 -174 -12 -70 -6 -111 20 -145 18 -23 21 -24 72 -13 58 12 74 9 82
-13 3 -8 -10 -112 -29 -232 -39 -244 -78 -563 -97 -787 -15 -191 -16 -764 0
-960 7 -82 22 -265 33 -405 23 -289 47 -427 90 -517 34 -71 99 -134 157 -151
65 -20 69 -30 44 -131 -14 -57 -22 -119 -22 -175 0 -79 2 -89 25 -111 27 -28
65 -32 125 -14 51 16 88 5 101 -29 6 -14 19 -74 29 -132 56 -318 145 -406 458
-451 45 -6 84 -15 87 -19 3 -5 -8 -41 -24 -82 -68 -170 -61 -228 35 -294 30
-21 57 -47 60 -58 3 -12 -2 -41 -11 -65 -31 -88 -12 -172 52 -233 76 -72 198
-66 254 13 16 23 24 52 29 106 4 49 11 77 20 83 26 17 143 11 220 -11 75 -20
212 -85 350 -164 118 -68 257 -131 355 -161 81 -24 106 -27 250 -28 136 0 174
3 253 23 51 12 104 20 117 17 13 -3 52 -26 87 -49 74 -51 116 -67 172 -67 23
0 46 -4 53 -8 6 -4 15 -36 19 -71 11 -102 70 -151 178 -151 69 0 111 17 152
61 54 59 65 122 42 245 -20 113 13 139 112 89 66 -34 148 -35 185 -2 28 24 43
85 31 132 -18 70 -113 132 -231 150 l-50 8 30 13 c17 7 61 13 98 14 159 1 308
-91 427 -265 67 -99 99 -126 152 -132 87 -9 141 57 141 173 1 50 -6 75 -32
128 -42 85 -96 127 -210 164 l-86 27 50 3 c58 4 157 -13 197 -34 193 -100 238
-403 77 -518 -31 -22 -55 -29 -102 -33 -83 -6 -115 14 -152 96 -39 85 -88 112
-164 91 -83 -22 -131 -92 -139 -200 -11 -164 110 -323 279 -366 104 -27 197
-4 295 70 53 40 73 44 97 18 14 -15 16 -32 10 -99 -5 -73 -4 -85 17 -117 35
-57 107 -90 200 -90 133 -1 183 50 186 189 4 187 35 292 107 363 60 58 126 85
212 86 182 1 339 -112 352 -254 9 -92 -31 -159 -111 -190 -22 -8 -27 -5 -51
35 -31 54 -68 75 -130 75 -56 0 -92 -18 -133 -64 -74 -85 -58 -191 41 -283 75
-69 99 -78 207 -77 153 1 188 19 340 174 170 174 200 179 312 48 118 -139 178
-182 298 -213 70 -18 169 -13 230 12 85 34 150 135 150 231 0 98 -57 155 -167
169 -68 8 -109 -14 -134 -73 -15 -33 -25 -44 -42 -44 -34 0 -64 26 -97 83 -54
93 -34 183 59 270 61 57 111 82 189 97 105 19 215 -13 290 -84 68 -63 102
-169 102 -321 0 -38 5 -87 10 -107 34 -120 179 -163 311 -92 86 48 113 108 86
196 -14 45 -14 49 5 73 26 33 47 32 99 -8 62 -48 96 -63 165 -77 196 -38 398
122 412 326 8 118 -32 199 -115 236 -78 34 -158 -1 -184 -80 -21 -67 -69 -102
-139 -102 -77 0 -154 50 -192 124 -32 60 -32 191 0 262 57 125 239 232 358
209 44 -8 36 -21 -18 -29 -24 -4 -66 -17 -93 -30 -135 -62 -190 -166 -170
-322 13 -106 90 -151 182 -107 26 12 51 41 91 102 75 116 146 182 249 233 73
36 94 42 166 46 57 3 93 0 117 -10 l35 -15 -48 -7 c-144 -22 -237 -97 -237
-191 0 -50 31 -102 66 -111 46 -12 133 3 180 31 43 25 46 26 71 10 28 -19 27
-9 7 -182 -10 -78 2 -119 47 -168 63 -68 151 -91 226 -60 71 30 102 76 112
165 l6 55 65 6 c69 6 121 28 184 78 22 17 49 34 61 37 11 3 68 -4 125 -16 139
-28 277 -36 381 -21 159 24 256 63 564 231 184 100 387 162 454 139 32 -11 51
-49 51 -103 1 -48 35 -113 72 -136 61 -37 182 -18 230 36 48 54 61 152 32 238
-19 54 -15 62 57 111 21 16 48 46 60 72 26 55 21 96 -26 208 -25 61 -31 83
-22 91 7 7 71 23 142 37 157 31 193 45 255 103 77 72 125 202 154 415 12 83
26 90 153 74 57 -7 63 -6 86 17 45 45 47 149 4 297 -25 87 -20 98 49 124 91
34 153 117 188 252 58 224 96 741 96 1296 0 525 -26 862 -94 1232 -33 176 -41
231 -37 271 1 17 7 18 65 12 58 -6 67 -4 84 14 28 31 34 74 21 161 -14 91 -6
111 62 156 99 65 90 180 -21 274 -28 24 -83 88 -122 143 -100 139 -111 206
-34 206 18 0 37 5 44 12 19 19 14 80 -11 117 -41 63 -47 76 -47 103 0 54 -7
58 -85 58 -91 0 -101 9 -89 83 4 28 9 105 9 171 2 132 1 129 74 141 64 11 101
50 101 107 0 49 -26 98 -65 124 -28 18 -93 21 -124 5 -31 -17 -59 -13 -72 10
-21 39 -5 102 49 191 64 107 77 147 62 193 -13 38 -52 75 -81 75 -10 0 -42
-11 -71 -24 -77 -34 -110 -39 -151 -22 -41 17 -60 48 -82 137 -25 98 -49 119
-133 119 -38 0 -53 -5 -70 -23 -28 -30 -29 -85 -1 -138 11 -23 18 -43 15 -46
-2 -3 -35 10 -72 28 -61 30 -75 33 -158 33 -102 0 -154 -16 -181 -57 -15 -23
-14 -30 1 -93 9 -38 35 -109 57 -158 35 -79 39 -95 35 -150 -4 -67 -48 -171
-80 -190 -41 -25 -106 84 -128 214 -21 127 -67 190 -140 190 -52 0 -83 -35
-83 -94 1 -61 24 -99 114 -192 102 -105 105 -135 12 -114 -63 15 -252 15 -334
0 -35 -6 -106 -23 -157 -37 -86 -25 -94 -26 -109 -10 -15 15 -12 20 45 77 68
66 88 115 77 181 -8 44 -47 108 -87 138 -89 70 -238 65 -278 -9 -17 -32 -7
-117 21 -178 l24 -54 -23 -18 c-29 -24 -106 -34 -262 -34 -177 0 -295 22 -720
132 -202 53 -337 72 -501 72 -236 0 -406 -33 -558 -107 -56 -27 -99 -60 -177
-134 -56 -55 -110 -99 -120 -99 -9 0 -42 27 -73 60 -90 97 -97 100 -222 93
l-106 -6 -48 74 c-57 90 -213 245 -316 316 -42 29 -112 70 -155 92 -79 39
-229 91 -263 91 -11 0 -29 8 -41 18 -44 36 -4 104 85 146 l56 26 40 -34 c62
-53 177 -73 239 -41 45 23 101 99 107 144 4 31 -1 53 -21 96 -50 102 -125 135
-239 108 l-70 -17 -28 32 c-37 41 -39 89 -6 120 32 31 62 27 116 -12 79 -58
111 -70 181 -70 121 0 210 76 210 179 0 47 -33 128 -67 166 -67 74 -139 94
-282 78 -94 -11 -154 -39 -256 -125 -104 -86 -134 -101 -173 -85 -17 7 -40 23
-51 35 l-22 23 32 52 c80 128 31 296 -109 378 -39 23 -59 27 -131 29 -47 2
-104 -1 -126 -5z m-736 -483 c15 -25 14 -29 -8 -52 -29 -30 -38 -32 -63 -9
-23 20 -23 51 -1 75 23 25 54 19 72 -14z m1735 11 c32 -25 32 -33 1 -64 -28
-29 -38 -31 -59 -9 -16 15 -22 75 -9 87 12 13 40 7 67 -14z m-1008 -173 c8
-20 -24 -72 -54 -87 -22 -12 -26 -11 -43 9 -23 30 -17 42 34 68 53 27 56 27
63 10z m268 -12 c25 -14 48 -30 51 -35 11 -16 -15 -49 -39 -49 -27 0 -91 74
-82 96 7 19 16 18 70 -12z m-507 -226 c29 -27 29 -61 2 -99 -25 -36 -42 -37
-68 -3 -20 26 -30 102 -14 117 14 14 58 6 80 -15z m778 -8 c15 -29 15 -32 -15
-75 -17 -25 -35 -45 -39 -45 -13 0 -71 69 -71 84 0 21 58 66 86 66 16 0 28 -9
39 -30z m-5749 -530 c-35 -42 -42 -91 -22 -155 23 -74 20 -123 -14 -215 -17
-45 -30 -101 -30 -126 0 -63 35 -131 87 -167 24 -17 43 -34 43 -39 0 -4 -17
-12 -39 -18 -44 -11 -89 -52 -97 -87 -10 -40 3 -102 30 -143 34 -52 101 -89
178 -100 64 -9 92 -29 81 -56 -7 -20 -45 -27 -98 -20 -96 15 -261 179 -342
341 -55 110 -34 197 106 429 51 85 71 129 71 153 0 31 -4 36 -50 55 -32 13
-50 27 -50 37 0 29 130 141 163 141 5 0 -3 -14 -17 -30z m10664 4 c33 -22 120
-106 120 -116 0 -4 -22 -19 -49 -32 -80 -41 -80 -61 1 -191 98 -159 131 -237
136 -325 5 -89 -5 -120 -75 -217 -102 -144 -234 -253 -306 -253 -74 0 -106 48
-46 69 18 6 45 11 61 11 126 0 232 150 184 263 -18 43 -43 63 -88 71 -45 8
-48 20 -10 40 100 52 128 171 72 311 -34 85 -37 129 -15 201 20 67 19 113 -5
152 -22 36 -17 40 20 16z m-5956 -146 c14 -20 12 -24 -36 -69 l-51 -47 5 -59
c3 -45 11 -69 36 -105 18 -26 32 -56 32 -67 0 -25 -35 -36 -85 -28 -26 4 -38
1 -56 -19 -19 -21 -21 -27 -11 -49 10 -21 9 -32 -3 -55 -11 -22 -12 -36 -5
-55 9 -23 6 -30 -19 -56 -35 -34 -42 -35 -101 -6 -62 30 -87 84 -96 199 -6 81
-5 91 19 140 34 69 91 128 196 203 152 109 150 108 175 73z m1376 -69 c188
-142 225 -197 225 -334 0 -113 -23 -166 -88 -207 -53 -34 -77 -35 -104 -5 -17
18 -22 41 -27 122 -7 120 -13 128 -98 121 -56 -4 -58 -4 -58 20 0 13 16 47 35
75 30 44 35 60 35 107 0 53 -2 58 -45 98 -25 23 -45 48 -45 56 0 18 20 38 37
38 7 0 67 -41 133 -91z m-3182 -238 c28 -13 66 -40 84 -59 40 -47 80 -134 76
-168 -6 -50 -26 -51 -139 -6 -157 63 -447 135 -629 158 -93 11 -88 20 29 49
165 41 272 54 406 51 100 -2 129 -6 173 -25z m5170 18 c139 -15 332 -60 332
-78 0 -4 -26 -11 -57 -14 -155 -16 -460 -91 -618 -152 -125 -48 -133 -49 -150
-35 -47 39 29 192 122 247 69 40 198 51 371 32z m-728 -130 c0 -5 -17 -33 -39
-62 -55 -74 -69 -104 -125 -272 -36 -105 -56 -151 -67 -153 -11 -2 -29 15 -49
45 -18 26 -50 63 -71 81 -22 19 -39 39 -39 46 0 19 96 143 157 203 31 31 85
68 134 92 76 39 99 43 99 20z m-3944 -21 c66 -37 131 -96 195 -176 93 -116 93
-111 23 -186 -32 -35 -66 -74 -75 -86 -28 -42 -46 -19 -84 107 -44 144 -60
180 -122 274 -26 41 -52 80 -57 88 -13 22 73 7 120 -21z m-2747 -124 c58 -9
162 -45 156 -54 -3 -5 -31 -12 -63 -16 -31 -3 -90 -17 -131 -30 -40 -13 -87
-24 -103 -24 -36 0 -83 24 -92 45 -10 27 -7 63 7 72 32 20 124 23 226 7z
m9554 -15 c21 -26 15 -55 -19 -86 -33 -30 -77 -29 -178 2 -45 13 -102 27 -128
30 -27 4 -48 10 -48 14 0 5 20 16 44 25 74 28 168 44 241 40 57 -2 73 -7 88
-25z m-9965 -49 c4 -26 -20 -50 -49 -50 -12 0 -18 11 -22 38 -6 48 -3 51 35
43 25 -5 34 -13 36 -31z m10222 2 c0 -44 -14 -58 -47 -46 -20 7 -29 17 -31 36
-3 23 2 28 30 36 41 11 48 8 48 -26z m-7691 -69 c38 -46 84 -165 185 -476 43
-132 106 -316 142 -409 68 -181 80 -252 48 -279 -22 -18 -44 -2 -76 57 -42 78
-388 1050 -388 1091 0 26 20 53 40 53 10 0 32 -17 49 -37z m5159 25 c21 -21
13 -62 -49 -239 -290 -829 -311 -886 -349 -931 -18 -21 -30 -27 -43 -22 -46
17 -39 86 26 245 41 100 80 213 181 529 116 360 179 473 234 418z m-322 -88
c22 0 18 -64 -5 -84 -11 -10 -23 -31 -26 -47 -9 -42 -35 -36 -67 15 -28 43
-34 71 -20 92 14 21 48 34 76 29 16 -3 35 -5 42 -5z m-4470 -34 c16 -33 16
-34 -17 -79 -35 -47 -69 -62 -69 -29 0 10 -11 33 -25 52 -14 19 -25 47 -25 62
0 28 1 28 60 28 59 0 61 -1 76 -34z m-2381 -25 c0 -7 -40 -38 -89 -68 -134
-80 -244 -106 -286 -68 -47 43 -8 95 73 96 28 0 95 13 147 29 101 30 155 34
155 11z m3315 1 c-50 -34 -122 -107 -146 -148 -49 -83 -42 -182 19 -250 88
-101 227 -104 353 -8 48 37 71 42 81 18 15 -40 -65 -147 -141 -186 -80 -41
-188 -70 -236 -63 -102 15 -174 69 -219 165 -38 80 -37 192 2 272 15 31 49 78
74 103 52 51 171 115 212 114 l26 0 -25 -17z m2578 -17 c65 -30 150 -109 184
-172 68 -125 53 -258 -41 -356 -51 -55 -104 -79 -183 -85 -157 -11 -340 103
-364 226 -8 42 12 43 71 2 139 -96 249 -100 345 -13 58 52 75 95 67 169 -10
95 -56 159 -177 247 l-25 17 35 -6 c19 -3 59 -16 88 -29z m3371 5 c57 -17 121
-30 143 -30 74 0 118 -43 90 -87 -23 -37 -133 -28 -223 18 -64 32 -169 100
-169 108 0 29 33 27 159 -9z m-5680 -106 c27 -22 29 -28 19 -47 -15 -28 -30
-40 -104 -77 -77 -38 -127 -40 -150 -5 -32 49 -4 92 88 131 71 31 109 30 147
-2z m2088 1 c99 -36 125 -75 82 -129 -27 -34 -64 -34 -137 3 -86 43 -106 63
-98 94 8 35 32 57 61 57 13 0 55 -11 92 -25z m-1244 -108 c32 -69 29 -78 -40
-104 -77 -30 -117 -71 -145 -145 -11 -32 -26 -58 -33 -58 -19 0 -44 33 -61 84
-15 43 -15 48 0 71 11 17 29 27 55 31 61 10 94 36 130 103 39 74 65 79 94 18z
m352 -24 c43 -65 69 -86 124 -97 42 -8 71 -32 71 -60 0 -32 -47 -126 -63 -126
-19 0 -30 15 -50 70 -27 70 -65 109 -127 129 -51 17 -55 20 -58 52 -4 41 25
101 47 97 9 -2 34 -31 56 -65z m-2294 27 c41 -22 65 -116 90 -347 10 -91 10
-115 -1 -128 -12 -14 -15 -14 -33 2 -31 29 -65 106 -76 172 -6 34 -17 74 -25
89 -73 136 -77 153 -53 185 10 14 30 24 75 36 2 1 12 -4 23 -9z m4227 -20 c31
-29 28 -71 -8 -122 -18 -27 -39 -79 -54 -138 -30 -114 -50 -164 -77 -191 -29
-29 -49 -9 -49 48 0 46 44 335 56 369 20 56 89 74 132 34z m-7520 -186 c35
-24 28 -49 -17 -62 -53 -16 -86 -15 -102 4 -11 14 -9 20 19 45 36 32 67 37
100 13z m10807 10 c19 -8 48 -61 40 -74 -14 -23 -132 0 -142 27 -13 33 55 64
102 47z m-11202 -86 c21 -33 -32 -65 -61 -36 -16 16 -15 23 4 43 19 19 43 16
57 -7z m5117 3 c15 -29 12 -61 -6 -68 -17 -6 -94 25 -94 39 0 4 9 17 20 28 26
26 66 26 80 1z m6451 9 c41 -23 7 -72 -36 -52 -27 13 -32 31 -13 50 15 15 24
15 49 2z m-5085 -14 c29 -22 7 -50 -46 -57 -48 -6 -60 7 -42 47 13 28 56 33
88 10z m375 -302 c156 -64 240 -69 403 -24 60 17 111 29 114 26 5 -6 2 -7
-163 -71 -410 -160 -834 -450 -988 -675 -28 -41 -65 -93 -81 -116 -17 -23 -36
-50 -42 -60 -9 -15 -15 -16 -24 -7 -10 9 -8 29 9 95 11 45 32 147 46 225 14
79 32 162 41 185 8 24 19 76 23 116 5 44 15 80 24 89 14 14 20 13 57 -17 56
-45 132 -71 221 -77 89 -7 136 6 185 50 49 42 63 75 75 175 9 72 21 112 34
112 1 0 30 -12 66 -26z m-2107 -65 c8 -92 20 -129 62 -178 41 -49 96 -71 179
-71 113 0 192 27 257 88 33 31 58 24 58 -17 0 -38 15 -112 45 -221 13 -47 33
-145 44 -218 12 -74 30 -154 41 -180 14 -32 17 -49 10 -56 -18 -18 -42 6 -120
122 -41 61 -106 144 -145 183 -186 189 -532 401 -905 554 -106 44 -125 55 -90
50 25 -3 74 -15 110 -26 102 -31 178 -28 296 14 54 19 111 36 125 36 26 1 26
-1 33 -80z m834 31 c117 -59 228 -59 347 -1 33 17 60 29 61 28 2 -3 -72 -296
-107 -425 -40 -144 -60 -160 -161 -130 -55 16 -72 42 -101 160 -15 57 -44 169
-66 251 -22 81 -38 147 -37 147 2 0 30 -14 64 -30z m2262 -473 c0 -12 -6 -42
-14 -67 -29 -96 -289 -816 -298 -827 -14 -18 -43 -16 -63 3 -21 22 -16 46 50
219 29 77 88 241 130 365 79 229 124 334 147 343 22 7 48 -12 48 -36z m-4085
-39 c19 -40 67 -167 106 -283 39 -115 94 -268 121 -340 72 -189 73 -191 60
-220 -16 -35 -53 -33 -75 4 -10 17 -53 135 -97 263 -43 128 -108 312 -144 408
-79 211 -83 240 -29 240 20 0 30 -12 58 -72z m1005 -108 c0 -69 -38 -145 -176
-351 -74 -110 -150 -231 -169 -268 -26 -53 -42 -72 -70 -85 -33 -16 -38 -16
-61 -2 -60 40 -26 115 226 491 146 216 179 254 228 255 19 0 22 -5 22 -40z
m2067 13 c26 -18 338 -483 382 -570 36 -72 40 -122 12 -147 -44 -40 -102 7
-166 134 -24 47 -73 128 -111 180 -121 171 -214 339 -214 387 0 42 45 50 97
16z m-4647 -179 c77 -18 140 -56 140 -84 0 -31 -26 -35 -101 -15 -106 27 -179
19 -277 -33 -87 -45 -112 -50 -136 -27 -30 30 12 92 91 134 36 19 125 40 173
40 25 0 74 -6 110 -15z m7403 -14 c87 -33 145 -110 109 -146 -21 -21 -68 -13
-122 21 -85 54 -181 69 -275 44 -78 -21 -102 -22 -109 -4 -14 37 32 75 111 94
74 18 228 13 286 -9z m-6478 -10 c140 -19 288 -51 359 -79 138 -53 234 -185
200 -275 -10 -25 -28 -20 -104 30 -82 53 -203 108 -415 189 -176 67 -270 114
-256 128 14 14 72 25 106 21 17 -2 66 -8 110 -14z m5494 1 c7 -5 10 -14 7 -20
-12 -19 -112 -65 -286 -131 -200 -76 -304 -124 -389 -181 -49 -33 -67 -40 -80
-32 -26 16 -25 76 3 130 49 96 127 144 303 189 181 45 406 68 442 45z m-2025
-52 c53 -62 29 -129 -80 -223 -105 -90 -130 -124 -137 -185 -7 -57 -32 -111
-92 -196 -63 -88 -75 -117 -95 -223 -29 -157 -32 -243 -15 -445 35 -416 96
-591 272 -779 35 -37 63 -75 63 -84 0 -26 -40 -64 -67 -64 -62 0 -142 78 -202
198 -80 158 -170 483 -191 688 -5 50 -14 104 -20 120 -14 35 -14 183 0 254 69
359 314 850 475 951 42 26 59 24 89 -12z m-1499 -42 c136 -142 351 -562 384
-753 6 -32 16 -81 22 -109 6 -31 8 -107 4 -200 -3 -88 -2 -156 4 -164 6 -10 5
-21 -4 -35 -8 -12 -18 -55 -24 -98 -36 -264 -147 -574 -259 -723 -64 -86 -145
-107 -176 -47 -19 38 -8 62 73 148 131 141 184 279 230 609 26 180 30 243 27
350 -6 210 -56 385 -139 488 -46 56 -53 71 -67 145 -16 80 -45 122 -147 211
-64 56 -85 81 -93 111 -20 74 10 130 69 130 30 0 44 -9 96 -63z m-2130 -134
c256 -80 563 -244 717 -382 77 -70 138 -162 138 -210 0 -42 -14 -61 -46 -61
-37 0 -53 11 -85 56 -123 180 -267 283 -676 488 -116 58 -215 111 -218 116 -3
6 -3 15 0 21 9 14 69 4 170 -28z m5780 17 c0 -10 -93 -62 -255 -145 -141 -71
-295 -157 -344 -189 -105 -71 -221 -177 -272 -249 -41 -57 -82 -97 -101 -97
-7 0 -22 9 -33 20 -71 71 54 234 300 393 263 169 705 337 705 267z m-5855
-179 c375 -226 539 -333 608 -398 53 -50 63 -70 38 -79 -8 -3 -107 38 -220 91
-114 52 -237 107 -274 121 -86 32 -206 42 -282 22 -64 -16 -119 -10 -158 19
-33 25 -38 60 -17 117 13 34 14 49 6 64 -11 21 -15 23 -91 42 -79 21 -114 73
-85 129 25 49 53 63 115 59 51 -4 77 -17 360 -187z m6222 150 c35 -40 37 -83
4 -116 -13 -13 -37 -27 -53 -31 -123 -27 -134 -39 -109 -111 21 -61 20 -85 -4
-111 -27 -29 -60 -36 -133 -28 -159 17 -198 18 -244 6 -66 -18 -216 -81 -332
-139 -203 -102 -279 -120 -238 -58 35 54 187 158 517 357 113 68 252 152 309
188 133 82 135 82 200 78 46 -2 59 -8 83 -35z m-6944 13 c48 -20 92 -62 92
-89 0 -33 -29 -52 -87 -57 -38 -4 -62 -13 -89 -34 -20 -16 -42 -33 -50 -39 -9
-6 -25 -2 -52 13 -24 13 -57 22 -84 22 -81 0 -89 34 -22 94 104 92 210 125
292 90z m7368 -10 c32 -14 75 -40 96 -57 20 -18 49 -41 63 -52 24 -19 25 -21
10 -42 -12 -18 -26 -23 -57 -23 -23 0 -62 -10 -86 -22 -29 -13 -49 -18 -57
-12 -7 5 -30 23 -51 39 -28 23 -51 31 -93 35 -47 4 -58 9 -70 32 -22 38 -1 71
63 103 64 32 109 32 182 -1z m-4735 -4 c10 -6 19 -19 19 -30 0 -26 -48 -62
-79 -58 -35 4 -41 48 -12 77 23 23 43 26 72 11z m1999 0 c20 -11 33 -50 24
-74 -9 -22 -50 -20 -74 4 -23 23 -24 33 -10 61 12 21 32 24 60 9z m-5122 -63
c6 -7 17 -34 23 -59 16 -58 1 -114 -41 -161 l-28 -32 -49 18 c-64 23 -78 22
-112 -10 -45 -42 -45 -79 0 -146 25 -38 28 -50 19 -67 -12 -22 -40 -26 -73 -8
-12 6 -50 11 -85 10 -51 0 -67 4 -89 22 -36 31 -25 55 52 111 35 26 98 85 141
132 77 85 207 203 223 203 5 0 13 -6 19 -13z m8401 -160 c86 -84 175 -168 199
-186 44 -34 51 -55 28 -86 -10 -14 -32 -20 -97 -26 -46 -4 -97 -11 -113 -15
-22 -5 -32 -3 -42 11 -15 20 -10 38 23 83 52 70 16 156 -64 156 -21 0 -53 -7
-72 -15 -32 -14 -34 -13 -61 19 -71 85 -64 212 12 212 26 0 54 -23 187 -153z
m-8790 79 c17 -20 3 -45 -38 -65 -20 -11 -74 -59 -121 -108 -51 -53 -97 -93
-114 -97 -21 -5 -48 4 -121 39 -51 25 -96 53 -99 61 -21 55 18 103 99 123 27
7 115 21 198 31 82 10 152 21 155 25 10 9 29 5 41 -9z m9157 -16 c246 -33 304
-55 304 -115 0 -43 -12 -54 -105 -100 -68 -33 -101 -44 -119 -39 -23 5 -129
104 -148 138 -4 8 -32 29 -61 46 -57 36 -67 46 -67 73 0 22 12 22 196 -3z
m-5441 -67 c34 -50 18 -60 -44 -29 -54 28 -67 56 -34 75 24 13 47 -1 78 -46z
m1622 35 c20 -16 3 -38 -49 -64 -62 -31 -81 -21 -49 25 12 17 32 37 43 45 20
15 29 14 55 -6z m-1934 -59 c20 -32 1 -49 -55 -49 -76 0 -87 11 -47 44 36 30
85 33 102 5z m2257 -6 c29 -24 31 -28 14 -34 -11 -4 -40 -8 -66 -8 -39 -1 -48
2 -54 21 -4 15 -1 25 12 35 28 20 59 16 94 -14z m-2050 -158 c32 -35 21 -55
-27 -48 -86 13 -114 42 -74 74 26 21 66 11 101 -26z m1846 24 c26 -29 9 -50
-56 -67 -46 -11 -55 -11 -68 1 -19 20 -10 33 46 62 58 30 55 29 78 4z m-2603
-85 c4 -4 -5 -20 -19 -37 -20 -24 -25 -39 -22 -68 3 -30 1 -35 -9 -27 -20 17
-16 82 8 112 21 26 31 31 42 20z m3291 -25 c26 -31 36 -92 17 -103 -5 -4 -7 3
-4 14 4 13 -6 40 -25 70 -35 56 -28 67 12 19z m-4759 -159 c360 -34 685 -154
978 -360 109 -77 332 -295 409 -400 151 -206 271 -452 463 -945 66 -168 100
-274 132 -401 3 -15 -2 -23 -22 -32 -30 -14 -51 -6 -180 68 -87 49 -237 109
-375 148 -217 62 -374 83 -625 83 -189 1 -263 -5 -615 -48 -269 -32 -547 -36
-682 -10 -238 47 -435 144 -630 311 -200 171 -385 449 -507 759 -139 355 -210
785 -135 814 9 3 54 -13 102 -35 154 -72 272 -99 467 -108 160 -8 302 12 580
80 121 29 261 59 310 65 50 6 101 13 115 15 50 7 107 6 215 -4z m3949 -12 c7
-13 19 -48 26 -78 16 -73 44 -120 87 -150 61 -43 93 -77 87 -94 -11 -28 -41
-28 -96 1 -43 22 -66 27 -123 28 -59 0 -78 -5 -122 -30 -45 -26 -53 -27 -68
-15 -15 12 -17 26 -12 93 10 126 58 209 142 248 52 24 62 24 79 -3z m-1597
-15 c67 -43 113 -152 113 -267 0 -66 -15 -72 -94 -35 -59 28 -75 31 -127 26
-40 -3 -76 -15 -113 -36 -52 -29 -54 -29 -71 -11 -26 29 -15 51 47 92 69 46
94 85 107 168 16 96 58 115 138 63z m4168 17 c39 -6 162 -33 275 -60 297 -72
376 -83 580 -84 235 0 380 32 530 118 55 32 74 32 94 4 21 -30 20 -97 -4 -248
-99 -608 -403 -1148 -799 -1419 -161 -110 -323 -177 -501 -206 -145 -25 -357
-16 -760 31 -504 59 -727 53 -1060 -27 -213 -51 -422 -133 -554 -217 -58 -37
-59 -37 -80 -16 -40 40 -16 139 114 463 181 454 273 648 386 817 313 469 802
771 1364 843 93 12 333 12 415 1z m-5101 -163 c27 -36 25 -104 -3 -150 -22
-36 -86 -77 -120 -77 -24 0 -51 45 -51 88 0 43 48 131 84 153 40 25 64 21 90
-14z m3456 3 c80 -57 94 -230 19 -230 -74 0 -164 115 -143 183 20 69 68 87
124 47z m-7762 -72 c25 -25 14 -69 -28 -110 -38 -35 -80 -51 -80 -28 0 22 30
124 41 136 14 17 51 18 67 2z m12032 -2 c11 -14 40 -108 40 -133 0 -20 -34
-15 -64 8 -15 11 -36 39 -47 61 -19 38 -19 41 -3 59 20 23 57 25 74 5z m-7383
-58 c44 -48 113 -172 113 -204 0 -71 -51 -145 -129 -188 -59 -31 -91 -28 -91
9 0 17 -9 29 -30 40 -42 22 -40 56 9 114 55 67 61 82 61 164 0 40 3 77 7 80
13 14 40 7 60 -15z m2730 -43 c5 -99 12 -123 57 -179 61 -74 65 -92 26 -114
-19 -11 -33 -28 -37 -45 -3 -16 -12 -31 -20 -34 -21 -8 -95 30 -141 72 -56 50
-66 80 -53 148 21 96 104 221 145 215 18 -3 21 -10 23 -63z m-1358 -291 c20
-25 36 -71 106 -298 76 -246 159 -401 283 -523 42 -41 99 -88 127 -104 95 -54
116 -95 61 -121 -21 -9 -42 -6 -121 17 -154 46 -174 64 -206 190 -21 86 -46
128 -90 150 -40 21 -73 10 -113 -37 -43 -49 -60 -110 -54 -192 6 -90 39 -137
136 -189 39 -21 72 -45 72 -52 0 -7 -30 -46 -66 -85 -86 -94 -114 -153 -114
-244 0 -119 53 -190 127 -171 16 3 42 9 60 12 l32 5 22 -77 c18 -60 32 -88 68
-127 54 -60 91 -78 165 -78 91 0 119 23 131 108 9 58 -20 100 -96 142 -78 43
-94 69 -85 133 13 83 78 131 151 113 35 -9 103 -72 126 -118 45 -88 44 -210
-3 -306 -19 -41 -127 -183 -234 -310 -53 -63 -192 -172 -219 -172 -12 0 -44
17 -71 39 -90 70 -116 79 -234 76 -119 -2 -122 -3 -207 -61 -71 -49 -95 -58
-127 -50 -28 7 -263 247 -335 343 -29 37 -67 100 -86 139 -30 62 -35 81 -35
146 0 93 20 154 71 212 80 90 178 85 228 -12 7 -12 13 -40 14 -62 2 -48 -17
-71 -91 -108 -72 -36 -97 -72 -97 -140 0 -49 3 -56 38 -89 23 -21 44 -32 54
-29 8 3 36 6 63 6 92 0 170 75 206 200 23 80 32 87 94 71 70 -18 102 -4 132
57 29 62 30 158 1 223 -11 25 -52 81 -92 125 -39 43 -71 84 -71 91 0 7 29 26
65 43 101 48 145 121 146 240 1 38 -2 79 -6 92 -13 41 -54 86 -90 98 -30 10
-41 9 -72 -7 -47 -23 -68 -58 -93 -159 -27 -107 -54 -131 -188 -173 -96 -30
-104 -31 -137 -17 -58 25 -46 46 75 126 124 83 239 218 300 354 15 33 54 142
86 241 59 185 106 308 125 332 18 20 46 15 68 -13z m-5870 -84 c20 -10 32 -38
52 -115 7 -27 20 -67 31 -87 53 -107 -23 -118 -117 -17 -79 85 -94 147 -46
198 30 32 50 38 80 21z m11742 -19 c21 -21 29 -39 29 -63 0 -86 -160 -242
-203 -199 -8 8 -7 23 7 59 10 26 29 83 42 127 32 110 68 132 125 76z m-7021
-95 c0 -7 -9 -48 -20 -91 -25 -96 -26 -230 -4 -306 9 -30 32 -81 52 -113 27
-45 33 -63 25 -75 -12 -18 -44 -25 -79 -17 -45 12 -104 147 -123 286 -19 137
20 293 82 331 32 19 67 11 67 -15z m2308 1 c42 -45 56 -103 56 -242 1 -108 -3
-142 -21 -201 -45 -143 -134 -217 -173 -143 -9 16 -4 31 24 77 55 90 70 157
63 282 -3 58 -13 131 -22 163 -12 45 -13 62 -4 73 17 21 53 17 77 -9z m-7168
-282 c52 -47 65 -55 100 -55 29 0 42 -5 50 -20 9 -18 6 -27 -19 -56 -37 -41
-41 -90 -12 -125 17 -21 26 -24 81 -21 l61 2 -3 -27 c-2 -22 -10 -29 -46 -40
-53 -15 -133 -4 -170 24 -40 30 -59 69 -81 170 -11 50 -29 109 -40 132 -22 41
-19 71 5 71 8 0 41 -25 74 -55z m12029 41 c8 -10 6 -24 -9 -59 -12 -26 -30
-88 -41 -139 -11 -51 -28 -106 -37 -123 -24 -42 -76 -65 -143 -65 -77 0 -119
16 -119 45 0 27 17 36 45 24 40 -16 73 -10 94 17 28 36 26 80 -6 127 -33 48
-24 70 35 78 32 4 54 17 96 57 59 56 67 60 85 38z m-6991 -101 c25 -23 27 -31
25 -96 -1 -39 -4 -74 -8 -77 -15 -15 -75 96 -77 142 -2 60 17 71 60 31z m1922
5 c7 -14 8 -32 1 -56 -11 -41 -58 -124 -70 -124 -12 0 -24 101 -15 125 8 23
54 75 66 75 4 0 12 -9 18 -20z m-6175 -267 c19 -19 14 -62 -11 -101 -18 -28
-48 -25 -52 5 -2 12 -10 27 -18 33 -21 18 -17 47 8 64 29 21 52 20 73 -1z
m10443 1 c25 -17 28 -41 7 -68 -8 -11 -15 -28 -15 -39 0 -27 -41 -18 -57 13
-16 32 -17 97 0 103 23 10 42 7 65 -9z m-4282 -263 c5 -5 23 -11 39 -13 40 -4
45 -36 10 -68 -14 -13 -25 -29 -25 -37 0 -23 -19 -14 -35 17 -16 30 -21 110
-7 110 4 0 12 -4 18 -9z m-1926 -32 c0 -40 -20 -109 -32 -109 -5 0 -11 8 -15
18 -4 9 -19 32 -35 50 -34 39 -26 58 25 65 18 2 38 5 45 5 7 1 12 -10 12 -29z
m-4088 -6 c21 -19 23 -34 6 -51 -17 -17 -48 4 -48 32 0 38 14 45 42 19z
m10116 -16 c4 -32 -22 -47 -44 -26 -12 13 -12 18 2 37 20 29 38 24 42 -11z
m-10300 -89 c6 -7 15 -38 21 -68 5 -30 19 -80 29 -111 23 -66 48 -228 39 -252
-11 -29 -44 -19 -103 33 -31 27 -83 66 -115 87 -91 59 -108 117 -57 200 20 34
73 80 123 106 37 20 50 21 63 5z m10542 -27 c54 -32 107 -99 116 -146 11 -58
-10 -88 -96 -144 -43 -28 -91 -66 -108 -85 -16 -19 -39 -39 -50 -45 -18 -10
-24 -7 -39 15 -15 23 -15 35 -6 103 7 42 23 112 37 156 14 44 28 100 32 125
11 69 29 72 114 21z m-10054 -117 c10 -14 19 -48 22 -75 4 -47 3 -51 -35 -88
-43 -40 -116 -68 -152 -56 -30 9 -71 63 -71 94 0 31 32 65 71 74 14 4 46 22
70 41 53 42 73 44 95 10z m9556 -4 c20 -17 56 -37 80 -45 52 -19 68 -38 68
-83 0 -44 -48 -92 -93 -92 -42 0 -111 35 -143 73 -22 26 -25 38 -22 78 6 55
30 99 56 99 10 0 34 -14 54 -30z m-9242 -35 c14 -8 37 -14 51 -15 23 0 69 -35
58 -44 -2 -2 -44 -16 -92 -32 -111 -35 -114 -32 -91 84 5 26 36 29 74 7z
m8914 -1 c8 -20 8 -99 0 -106 -6 -7 -172 36 -182 47 -11 11 23 34 78 53 70 25
96 26 104 6z m-6404 -199 c201 -46 435 -138 509 -201 50 -42 61 -73 61 -171 0
-48 5 -117 10 -153 24 -149 24 -169 5 -176 -26 -10 -46 6 -85 72 -44 77 -175
207 -270 271 -41 27 -131 83 -200 123 -227 133 -340 220 -327 254 11 28 128
20 297 -19z m4115 25 c22 -36 -37 -84 -307 -248 -309 -189 -381 -248 -486
-404 -36 -54 -59 -78 -73 -78 -29 0 -33 22 -20 104 7 40 16 129 20 197 10 145
17 166 66 207 60 49 290 142 465 187 153 40 321 58 335 35z m-5459 -25 c8 -11
14 -23 14 -28 0 -15 -57 -67 -74 -67 -21 0 -79 87 -72 107 9 23 114 13 132
-12z m6640 10 c6 -14 -37 -88 -57 -101 -13 -7 -66 23 -73 41 -19 52 5 73 82
74 29 1 44 -4 48 -14z m-6893 -93 c37 -21 102 -99 189 -226 44 -64 69 -114 90
-179 64 -199 11 -185 -273 71 -185 167 -209 196 -209 258 0 100 99 137 203 76z
m7152 24 c50 -21 69 -56 63 -117 -6 -60 -16 -71 -226 -257 -257 -228 -307
-244 -267 -90 21 82 77 184 165 303 75 99 112 134 170 159 44 19 53 19 95 2z
m-6284 -12 c29 -26 -2 -73 -48 -74 -24 0 -43 26 -35 50 14 42 51 53 83 24z
m5355 -9 c22 -34 15 -59 -19 -63 -49 -6 -86 45 -55 76 20 20 56 14 74 -13z
m1885 -98 c322 -121 614 -110 817 30 57 39 84 38 90 -4 5 -31 -37 -131 -71
-169 -77 -88 -294 -139 -492 -114 -254 31 -456 133 -589 296 -36 44 -44 59
-35 70 9 11 27 5 97 -30 48 -24 130 -60 183 -79z m-8921 100 c0 -34 -107 -150
-193 -209 -183 -125 -454 -183 -677 -144 -151 27 -238 75 -280 156 -25 49 -42
117 -35 140 10 30 36 24 108 -24 114 -76 271 -114 430 -102 155 12 403 86 562
169 55 29 85 34 85 14z m1340 -26 c92 -65 103 -203 23 -292 -58 -64 -111 -49
-154 44 -25 56 -26 169 -1 217 29 60 76 70 132 31z m6067 7 c65 -52 57 -242
-14 -320 -28 -31 -81 -23 -119 17 -62 66 -69 159 -17 244 42 69 106 94 150 59z
m-6964 -264 c43 -22 67 -53 67 -90 0 -58 -62 -99 -175 -115 -33 -4 -90 -23
-129 -43 -102 -50 -110 -35 -45 84 86 158 182 214 282 164z m1434 6 c50 -18
60 -50 40 -128 -31 -120 -90 -227 -165 -301 -88 -88 -200 -151 -233 -130 -18
11 -25 183 -10 263 28 153 116 259 241 292 57 16 89 17 127 4z m328 -24 c76
-36 121 -76 112 -100 -3 -8 -32 -22 -64 -31 -32 -9 -87 -32 -122 -51 -77 -43
-107 -42 -103 1 11 137 18 192 25 203 15 22 80 13 152 -22z m4383 22 c5 -7 12
-49 15 -93 3 -44 9 -92 13 -107 10 -44 -17 -45 -104 -5 -42 19 -101 44 -129
54 -60 20 -68 31 -46 62 46 67 219 128 251 89z m321 -8 c94 -25 167 -100 203
-207 21 -61 36 -268 24 -317 -9 -36 -43 -34 -120 7 -145 76 -281 272 -293 420
-6 71 2 91 42 108 22 10 87 5 144 -11z m1446 -4 c76 -45 190 -237 159 -268 -3
-3 -31 7 -62 23 -31 16 -86 36 -122 44 -128 31 -149 37 -169 56 -47 44 -36
103 28 146 46 31 111 31 166 -1z m-5153 -46 c33 -26 38 -49 22 -96 -8 -21 -28
-86 -45 -144 -35 -120 -50 -145 -69 -110 -15 28 -3 300 15 358 6 18 49 14 77
-8z m2320 -25 c16 -86 21 -300 8 -324 -18 -35 -33 -12 -60 89 -12 47 -31 107
-41 133 -25 63 -24 95 3 124 16 17 31 23 53 21 26 -3 31 -8 37 -43z m-5764
-45 c1 -14 -2 -32 -8 -40 -16 -25 -44 11 -36 45 9 34 40 30 44 -5z m9168 15
c9 -23 -5 -65 -21 -65 -16 0 -30 42 -21 65 3 8 12 15 21 15 9 0 18 -7 21 -15z
m-8954 -77 c43 -49 46 -140 8 -225 -15 -34 -24 -43 -43 -43 -27 0 -27 0 -63
104 -37 107 -31 156 21 184 25 14 55 6 77 -20z m8792 7 c30 -28 33 -62 12
-140 -17 -64 -52 -145 -64 -145 -14 0 -50 43 -61 73 -14 36 -14 138 0 174 25
66 67 80 113 38z m-7842 -151 c18 -36 20 -45 9 -58 -13 -16 -70 -23 -72 -8 -1
14 -1 107 0 120 2 22 39 -9 63 -54z m6862 38 c-1 -7 -2 -35 -2 -63 l-2 -50
-32 3 c-29 3 -33 7 -36 34 -2 22 5 40 24 63 25 31 50 37 48 13z m-7114 -17
c26 -16 29 -56 14 -168 -17 -125 -11 -179 26 -212 28 -25 63 -13 124 44 66 63
90 75 106 56 30 -36 -65 -222 -139 -270 -57 -38 -81 -39 -166 -11 -43 14 -83
26 -91 26 -37 0 -126 45 -179 91 -33 28 -84 67 -113 87 -86 58 -105 120 -53
173 18 18 40 29 56 29 27 0 33 -5 131 -112 44 -50 78 -61 121 -43 32 14 63 67
63 107 0 14 -9 53 -21 88 -11 35 -18 73 -14 87 11 44 85 59 135 28z m655 -10
c44 -46 58 -92 53 -175 -3 -55 -9 -75 -33 -110 -31 -44 -109 -108 -187 -154
-68 -40 -70 -19 -9 102 54 107 85 204 96 299 4 32 9 61 12 66 10 16 37 5 68
-28z m6067 -27 c12 -100 38 -180 95 -301 40 -84 53 -121 46 -128 -8 -8 -19 -5
-40 9 -15 11 -54 36 -85 57 -63 40 -110 93 -133 149 -32 77 -10 192 50 252 40
40 59 29 67 -38z m696 32 c27 -25 27 -38 1 -120 -30 -97 -11 -167 53 -189 46
-16 87 7 142 78 69 89 101 101 155 55 22 -18 31 -35 31 -56 0 -33 -16 -69 -36
-81 -8 -4 -51 -38 -96 -76 -122 -100 -156 -118 -295 -157 -111 -32 -130 -35
-164 -25 -73 22 -172 170 -173 259 -1 27 4 47 11 49 7 2 41 -22 76 -55 71 -66
96 -78 126 -62 45 23 54 82 37 220 -14 109 -9 144 21 168 26 19 86 15 111 -8z
m-8558 -40 c43 -23 125 -106 139 -141 7 -20 6 -32 -5 -48 -14 -20 -24 -21
-150 -21 -75 0 -143 4 -153 10 -31 16 -53 85 -41 129 24 91 113 121 210 71z
m9730 5 c43 -22 60 -53 60 -108 0 -40 -5 -53 -27 -76 -27 -26 -31 -27 -159
-29 -116 -2 -134 0 -155 17 -21 17 -22 22 -11 45 17 39 101 125 142 146 43 23
111 25 150 5z m-5696 -71 c27 -27 18 -50 -54 -134 -64 -75 -91 -131 -101 -214
-12 -100 -17 -114 -39 -121 -27 -8 -37 -1 -62 48 -15 29 -23 66 -26 123 -5
100 15 179 61 231 59 67 183 105 221 67z m1651 -3 c58 -26 111 -90 131 -157
23 -79 16 -203 -15 -262 -42 -81 -77 -64 -92 44 -16 120 -31 152 -111 246 -56
65 -69 94 -57 126 7 19 16 22 56 22 26 0 66 -9 88 -19z m-751 -95 c59 -29 96
-60 96 -81 0 -14 -30 -22 -55 -15 -5 2 -101 2 -211 1 -124 -1 -204 1 -208 7
-10 16 41 69 89 92 90 43 195 42 289 -4z m-713 -120 c12 -13 62 -88 111 -167
82 -135 104 -189 76 -189 -6 0 -51 21 -100 46 -53 27 -114 49 -151 56 -82 14
-97 28 -97 93 0 89 62 183 121 185 9 0 27 -11 40 -24z m1214 10 c41 -18 83
-93 92 -167 7 -59 -5 -76 -56 -84 -55 -9 -149 -44 -223 -82 -65 -34 -88 -36
-88 -8 0 18 187 327 207 343 21 15 26 15 68 -2z m-3223 -310 c6 -29 4 -48 -9
-75 -24 -48 -52 -50 -166 -10 -191 66 -218 85 -159 107 43 17 69 20 202 18
l124 -1 8 -39z m5452 34 c21 -4 46 -16 55 -25 15 -15 15 -17 -2 -30 -21 -15
-215 -80 -269 -90 -52 -10 -78 18 -78 83 0 26 5 53 12 60 14 14 223 16 282 2z
m-4026 -332 c19 -19 15 -35 -23 -89 -40 -59 -52 -96 -61 -197 -4 -40 -11 -75
-17 -79 -5 -3 -21 6 -36 21 -24 24 -26 33 -26 104 1 103 23 160 82 212 49 43
62 47 81 28z m2399 -42 c97 -100 98 -316 2 -316 -5 0 -9 21 -9 48 0 71 -24
157 -59 213 -67 108 -22 145 66 55z"/>
</g>
</svg>
